<svg width="404" height="1297" viewBox="0 0 404 1297" fill="none" xmlns="http://www.w3.org/2000/svg">
<path d="M1352 613.023C1352.45 620.855 1352.74 628.725 1352.89 636.629L1350.39 636.676C1350.46 640.609 1350.5 644.55 1350.5 648.5C1350.5 652.45 1350.46 656.391 1350.39 660.324L1352.89 660.371C1352.74 668.275 1352.45 676.145 1352 683.977L1349.51 683.837C1349.07 691.713 1348.48 699.551 1347.74 707.35L1350.23 707.584C1349.49 715.463 1348.6 723.302 1347.56 731.097L1345.09 730.768C1344.05 738.573 1342.87 746.333 1341.55 754.048L1344.01 754.471C1342.68 762.258 1341.2 769.999 1339.58 777.691L1337.13 777.175C1335.5 784.883 1333.73 792.542 1331.83 800.147L1334.25 800.756C1332.33 808.42 1330.26 816.03 1328.06 823.585L1325.66 822.885C1323.45 830.435 1321.11 837.928 1318.63 845.363L1321 846.154C1318.51 853.645 1315.87 861.077 1313.1 868.447L1310.76 867.567C1307.99 874.929 1305.09 882.23 1302.05 889.466L1304.35 890.433C1301.3 897.711 1298.11 904.923 1294.79 912.067L1292.52 911.014C1289.21 918.141 1285.77 925.2 1282.2 932.189L1284.43 933.326C1280.84 940.353 1277.12 947.308 1273.28 954.189L1271.09 952.969C1267.26 959.83 1263.3 966.616 1259.22 973.325L1261.36 974.624C1257.26 981.363 1253.04 988.024 1248.7 994.605L1246.61 993.229C1242.29 999.786 1237.84 1006.26 1233.28 1012.66L1235.32 1014.11C1230.74 1020.53 1226.04 1026.86 1221.23 1033.11L1219.25 1031.59C1214.46 1037.81 1209.56 1043.95 1204.55 1050L1206.47 1051.6C1201.44 1057.66 1196.3 1063.64 1191.05 1069.53L1189.18 1067.87C1183.96 1073.73 1178.63 1079.5 1173.19 1085.18L1175 1086.91C1169.55 1092.6 1163.99 1098.2 1158.33 1103.7L1156.59 1101.91C1150.97 1107.38 1145.24 1112.76 1139.41 1118.04L1141.09 1119.89C1135.25 1125.18 1129.32 1130.37 1123.28 1135.46L1121.67 1133.55C1115.67 1138.61 1109.58 1143.57 1103.39 1148.43L1104.93 1150.4C1098.74 1155.26 1092.45 1160.02 1086.08 1164.68L1084.61 1162.66C1078.27 1167.29 1071.85 1171.81 1065.34 1176.22L1066.74 1178.29C1060.22 1182.71 1053.62 1187.02 1046.93 1191.23L1045.6 1189.11C1038.96 1193.29 1032.23 1197.35 1025.42 1201.31L1026.68 1203.47C1019.88 1207.42 1012.99 1211.27 1006.03 1214.99L1004.85 1212.79C997.941 1216.49 990.953 1220.08 983.893 1223.56L984.997 1225.8C977.933 1229.28 970.796 1232.64 963.59 1235.88L962.564 1233.6C955.41 1236.82 948.187 1239.92 940.898 1242.9L941.845 1245.21C934.567 1248.19 927.223 1251.05 919.816 1253.79L918.949 1251.44C911.596 1254.16 904.181 1256.76 896.707 1259.24L897.493 1261.61C890.02 1264.08 882.487 1266.44 874.898 1268.67L874.193 1266.27C866.676 1268.47 859.103 1270.56 851.477 1272.52L852.099 1274.94C844.486 1276.9 836.82 1278.73 829.104 1280.43L828.564 1277.99C820.911 1279.68 813.208 1281.25 805.457 1282.69L805.913 1285.15C798.18 1286.58 790.399 1287.89 782.574 1289.07L782.201 1286.6C774.465 1287.77 766.685 1288.81 758.863 1289.73L759.153 1292.21C751.347 1293.12 743.499 1293.9 735.612 1294.56L735.406 1292.07C727.591 1292.72 719.739 1293.24 711.851 1293.63L711.975 1296.12C704.142 1296.51 696.274 1296.77 688.372 1296.9L688.331 1294.4C684.396 1294.47 680.452 1294.5 676.5 1294.5C672.548 1294.5 668.604 1294.47 664.669 1294.4L664.628 1296.9C656.727 1296.77 648.858 1296.51 641.026 1296.12L641.149 1293.63C633.261 1293.24 625.409 1292.72 617.595 1292.07L617.388 1294.56C609.501 1293.9 601.654 1293.12 593.847 1292.21L594.137 1289.73C586.316 1288.81 578.536 1287.77 570.799 1286.6L570.426 1289.07C562.601 1287.89 554.82 1286.58 547.087 1285.15L547.543 1282.69C539.792 1281.25 532.089 1279.68 524.436 1277.99L523.896 1280.43C516.18 1278.73 508.514 1276.9 500.901 1274.94L501.523 1272.52C493.897 1270.56 486.324 1268.47 478.807 1266.27L478.103 1268.67C470.513 1266.44 462.981 1264.08 455.507 1261.61L456.293 1259.24C448.819 1256.76 441.404 1254.16 434.051 1251.44L433.184 1253.79C425.777 1251.05 418.433 1248.19 411.155 1245.21L412.102 1242.9C404.813 1239.92 397.59 1236.82 390.436 1233.6L389.41 1235.88C382.204 1232.64 375.068 1229.28 368.003 1225.8L369.107 1223.56C362.047 1220.08 355.06 1216.49 348.147 1212.79L346.967 1214.99C340.008 1211.27 333.125 1207.42 326.321 1203.47L327.577 1201.31C320.77 1197.35 314.043 1193.29 307.397 1189.11L306.067 1191.23C299.381 1187.02 292.778 1182.71 286.259 1178.29L287.662 1176.22C281.154 1171.81 274.73 1167.29 268.394 1162.66L266.92 1164.68C260.546 1160.02 254.26 1155.26 248.066 1150.4L249.61 1148.43C243.424 1143.57 237.329 1138.61 231.329 1133.55L229.717 1135.46C223.685 1130.37 217.748 1125.18 211.909 1119.89L213.588 1118.04C207.762 1112.76 202.035 1107.38 196.408 1101.91L194.665 1103.7C189.009 1098.2 183.454 1092.6 178.004 1086.91L179.81 1085.18C174.373 1079.5 169.041 1073.73 163.816 1067.87L161.95 1069.53C156.701 1063.64 151.56 1057.66 146.53 1051.6L148.455 1050C143.441 1043.95 138.538 1037.81 133.749 1031.59L131.767 1033.11C126.957 1026.86 122.261 1020.53 117.682 1014.11L119.717 1012.66C115.156 1006.26 110.711 999.786 106.386 993.229L104.299 994.605C99.9578 988.024 95.737 981.363 91.6392 974.625L93.7753 973.326C89.6951 966.616 85.7376 959.83 81.9055 952.97L79.723 954.189C75.8794 947.308 72.1615 940.353 68.5723 933.326L70.7987 932.189C67.2289 925.201 63.787 918.141 60.4758 911.014L58.2086 912.068C54.8894 904.923 51.7011 897.711 48.6465 890.433L50.9517 889.466C47.9147 882.23 45.0105 874.93 42.2419 867.567L39.9019 868.447C37.1305 861.077 34.4944 853.645 31.9965 846.154L34.3681 845.364C31.8888 837.928 29.5463 830.435 27.3432 822.885L24.9433 823.586C22.7386 816.031 20.6731 808.42 18.7495 800.756L21.1743 800.148C19.2653 792.542 17.4966 784.884 15.8712 777.175L13.425 777.691C11.8029 770 10.3229 762.259 8.98762 754.471L11.4517 754.048C10.1289 746.334 8.94868 738.573 7.91376 730.768L5.43545 731.097C4.40174 723.302 3.5124 715.463 2.77007 707.584L5.25905 707.35C4.52431 699.552 3.93417 691.713 3.4912 683.837L0.995148 683.977C0.554617 676.145 0.259081 668.275 0.111066 660.371L2.61063 660.324C2.53698 656.391 2.5 652.45 2.5 648.5C2.5 644.55 2.53698 640.609 2.61062 636.676L0.11106 636.629C0.259071 628.725 0.554603 620.856 0.995129 613.023L3.49118 613.163C3.93414 605.287 4.52429 597.449 5.25901 589.65L2.77003 589.416C3.51236 581.537 4.40171 573.698 5.43541 565.903L7.91371 566.232C8.94863 558.427 10.1288 550.667 11.4516 542.952L8.98757 542.529C10.3229 534.742 11.8029 527.001 13.4249 519.309L15.8711 519.825C17.4966 512.117 19.2652 504.459 21.1742 496.853L18.7495 496.244C20.673 488.58 22.7385 480.97 24.9432 473.415L27.3431 474.115C29.5462 466.565 31.8887 459.072 34.368 451.637L31.9964 450.846C34.4943 443.355 37.1304 435.923 39.9018 428.553L42.2418 429.433C45.0104 422.071 47.9146 414.77 50.9516 407.535L48.6464 406.567C51.701 399.289 54.8893 392.077 58.2084 384.933L60.4757 385.986C63.7869 378.859 67.2288 371.8 70.7985 364.811L68.5721 363.674C72.1613 356.648 75.8792 349.692 79.7228 342.812L81.9054 344.031C85.7374 337.17 89.695 330.384 93.7751 323.675L91.639 322.376C95.7368 315.637 99.9576 308.976 104.299 302.395L106.386 303.771C110.711 297.214 115.155 290.737 119.717 284.342L117.682 282.89C122.261 276.471 126.957 270.136 131.767 263.885L133.748 265.41C138.538 259.187 143.441 253.05 148.455 247L146.53 245.405C151.56 239.336 156.7 233.356 161.949 227.467L163.816 229.13C169.04 223.268 174.373 217.497 179.81 211.819L178.004 210.09C183.454 204.398 189.009 198.8 194.665 193.299L196.408 195.091C202.034 189.619 207.762 184.242 213.587 178.964L211.909 177.112C217.747 171.822 223.684 166.63 229.717 161.541L231.329 163.451C237.329 158.389 243.424 153.427 249.61 148.568L248.066 146.602C254.26 141.737 260.546 136.976 266.92 132.321L268.394 134.34C274.73 129.713 281.153 125.192 287.662 120.778L286.259 118.709C292.777 114.289 299.381 109.976 306.067 105.774L307.397 107.891C314.043 103.714 320.77 99.647 327.577 95.692L326.32 93.5304C333.125 89.5765 340.008 85.7344 346.966 82.0067L348.147 84.2104C355.059 80.5074 362.047 76.9178 369.107 73.444L368.003 71.2009C375.067 67.7248 382.204 64.3644 389.41 61.1222L390.436 63.4021C397.59 60.1833 404.813 57.0815 412.101 54.0993L411.155 51.7855C418.433 48.8075 425.777 45.9483 433.184 43.2104L434.051 45.5553C441.404 42.8375 448.819 40.2396 456.293 37.7643L455.507 35.391C462.98 32.9161 470.513 30.5632 478.102 28.3348L478.807 30.7336C486.324 28.5264 493.897 26.4419 501.523 24.4823L500.901 22.061C508.514 20.1049 516.18 18.2729 523.896 16.5674L524.436 19.0085C532.089 17.317 539.792 15.7504 547.543 14.311L547.087 11.8531C554.82 10.4169 562.601 9.10699 570.426 7.9257L570.799 10.3977C578.535 9.22984 586.315 8.18812 594.137 7.2748L593.847 4.79168C601.653 3.88007 609.501 3.09593 617.388 2.44151L617.594 4.93294C625.409 4.28453 633.261 3.76389 641.149 3.37324L641.025 0.876301C648.858 0.488392 656.726 0.228201 664.627 0.0978597L664.669 2.59752C668.604 2.5326 672.548 2.5 676.5 2.5C680.452 2.5 684.396 2.53259 688.331 2.59752L688.372 0.0978556C696.273 0.228195 704.141 0.488382 711.974 0.876287L711.851 3.37323C719.739 3.76388 727.591 4.28451 735.405 4.93292L735.612 2.44148C743.499 3.09591 751.346 3.88004 759.153 4.79165L758.863 7.27478C766.684 8.18809 774.464 9.22981 782.201 10.3977L782.574 7.92567C790.399 9.10696 798.18 10.4169 805.913 11.853L805.457 14.311C813.207 15.7503 820.911 17.317 828.564 19.0085L829.104 16.5674C836.82 18.2729 844.486 20.1048 852.099 22.0609L851.477 24.4823C859.103 26.4418 866.676 28.5264 874.193 30.7335L874.897 28.3348C882.487 30.5632 890.019 32.9161 897.493 35.391L896.707 37.7642C904.181 40.2396 911.596 42.8374 918.949 45.5552L919.816 43.2103C927.223 45.9482 934.567 48.8074 941.845 51.7854L940.898 54.0992C948.187 57.0814 955.41 60.1832 962.564 63.402L963.59 61.1221C970.796 64.3643 977.932 67.7247 984.997 71.2008L983.893 73.4439C990.953 76.9177 997.94 80.5073 1004.85 84.2103L1006.03 82.0066C1012.99 85.7343 1019.88 89.5764 1026.68 93.5303L1025.42 95.6919C1032.23 99.6469 1038.96 103.714 1045.6 107.891L1046.93 105.774C1053.62 109.976 1060.22 114.289 1066.74 118.709L1065.34 120.778C1071.85 125.192 1078.27 129.713 1084.61 134.34L1086.08 132.321C1092.45 136.976 1098.74 141.737 1104.93 146.602L1103.39 148.568C1109.58 153.426 1115.67 158.388 1121.67 163.451L1123.28 161.54C1129.32 166.63 1135.25 171.822 1141.09 177.111L1139.41 178.964C1145.24 184.242 1150.97 189.618 1156.59 195.091L1158.33 193.298C1163.99 198.8 1169.55 204.398 1175 210.09L1173.19 211.819C1178.63 217.497 1183.96 223.268 1189.18 229.13L1191.05 227.467C1196.3 233.356 1201.44 239.336 1206.47 245.405L1204.55 247C1209.56 253.049 1214.46 259.187 1219.25 265.41L1221.23 263.885C1226.04 270.135 1230.74 276.471 1235.32 282.89L1233.28 284.342C1237.84 290.737 1242.29 297.214 1246.61 303.771L1248.7 302.395C1253.04 308.976 1257.26 315.637 1261.36 322.375L1259.22 323.674C1263.3 330.384 1267.26 337.17 1271.09 344.03L1273.28 342.811C1277.12 349.692 1280.84 356.647 1284.43 363.674L1282.2 364.811C1285.77 371.799 1289.21 378.859 1292.52 385.986L1294.79 384.932C1298.11 392.077 1301.3 399.289 1304.35 406.567L1302.05 407.534C1305.09 414.77 1307.99 422.07 1310.76 429.433L1313.1 428.553C1315.87 435.923 1318.51 443.355 1321 450.846L1318.63 451.636C1321.11 459.072 1323.45 466.565 1325.66 474.115L1328.06 473.414C1330.26 480.969 1332.33 488.58 1334.25 496.244L1331.83 496.852C1333.73 504.458 1335.5 512.117 1337.13 519.825L1339.58 519.309C1341.2 527 1342.68 534.741 1344.01 542.529L1341.55 542.952C1342.87 550.666 1344.05 558.427 1345.09 566.232L1347.56 565.903C1348.6 573.698 1349.49 581.537 1350.23 589.416L1347.74 589.65C1348.48 597.448 1349.07 605.287 1349.51 613.163L1352 613.023Z" stroke="#929292" stroke-width="5" stroke-dasharray="24 24"/>
</svg>
