<svg width="601" height="1297" viewBox="0 0 601 1297" fill="none" xmlns="http://www.w3.org/2000/svg">
<path d="M600.005 613.023C600.445 620.855 600.741 628.725 600.889 636.629L598.389 636.676C598.463 640.609 598.5 644.55 598.5 648.5C598.5 652.45 598.463 656.391 598.389 660.324L600.889 660.371C600.741 668.275 600.445 676.145 600.005 683.977L597.509 683.837C597.066 691.713 596.476 699.551 595.741 707.35L598.23 707.584C597.488 715.463 596.598 723.302 595.565 731.097L593.086 730.768C592.051 738.573 590.871 746.333 589.548 754.048L592.012 754.471C590.677 762.258 589.197 769.999 587.575 777.691L585.129 777.175C583.503 784.883 581.735 792.542 579.826 800.147L582.25 800.756C580.327 808.42 578.261 816.03 576.057 823.585L573.657 822.885C571.454 830.435 569.111 837.928 566.632 845.363L569.004 846.154C566.506 853.645 563.87 861.077 561.098 868.447L558.758 867.567C555.99 874.929 553.085 882.23 550.048 889.466L552.354 890.433C549.299 897.711 546.111 904.923 542.792 912.067L540.524 911.014C537.213 918.141 533.771 925.2 530.201 932.189L532.428 933.326C528.839 940.353 525.121 947.308 521.277 954.189L519.095 952.969C515.263 959.83 511.305 966.616 507.225 973.325L509.361 974.624C505.263 981.363 501.042 988.024 496.701 994.605L494.615 993.229C490.289 999.786 485.844 1006.26 481.283 1012.66L483.318 1014.11C478.739 1020.53 474.043 1026.86 469.233 1033.11L467.252 1031.59C462.462 1037.81 457.559 1043.95 452.545 1050L454.47 1051.6C449.44 1057.66 444.3 1063.64 439.051 1069.53L437.184 1067.87C431.96 1073.73 426.627 1079.5 421.19 1085.18L422.996 1086.91C417.546 1092.6 411.991 1098.2 406.335 1103.7L404.592 1101.91C398.965 1107.38 393.238 1112.76 387.412 1118.04L389.091 1119.89C383.252 1125.18 377.316 1130.37 371.283 1135.46L369.671 1133.55C363.671 1138.61 357.576 1143.57 351.39 1148.43L352.934 1150.4C346.74 1155.26 340.454 1160.02 334.08 1164.68L332.606 1162.66C326.27 1167.29 319.847 1171.81 313.338 1176.22L314.741 1178.29C308.222 1182.71 301.619 1187.02 294.933 1191.23L293.603 1189.11C286.957 1193.29 280.23 1197.35 273.423 1201.31L274.679 1203.47C267.875 1207.42 260.992 1211.27 254.034 1214.99L252.853 1212.79C245.941 1216.49 238.953 1220.08 231.893 1223.56L232.997 1225.8C225.933 1229.28 218.796 1232.64 211.59 1235.88L210.564 1233.6C203.41 1236.82 196.187 1239.92 188.898 1242.9L189.845 1245.21C182.567 1248.19 175.223 1251.05 167.816 1253.79L166.949 1251.44C159.596 1254.16 152.181 1256.76 144.707 1259.24L145.493 1261.61C138.02 1264.08 130.487 1266.44 122.898 1268.67L122.193 1266.27C114.676 1268.47 107.103 1270.56 99.477 1272.52L100.099 1274.94C92.4862 1276.9 84.8203 1278.73 77.1039 1280.43L76.5645 1277.99C68.911 1279.68 61.2076 1281.25 53.4569 1282.69L53.9134 1285.15C46.1797 1286.58 38.399 1287.89 30.5739 1289.07L30.2007 1286.6C22.4645 1287.77 14.6846 1288.81 6.86328 1289.73L7.15326 1292.21C-0.653442 1293.12 -8.50116 1293.9 -16.3876 1294.56L-16.5944 1292.07C-24.4085 1292.72 -32.2608 1293.24 -40.149 1293.63L-40.0254 1296.12C-47.8583 1296.51 -55.7264 1296.77 -63.6275 1296.9L-63.6687 1294.4C-67.6043 1294.47 -71.5482 1294.5 -75.5 1294.5C-79.4518 1294.5 -83.3956 1294.47 -87.3312 1294.4L-87.3724 1296.9C-95.2735 1296.77 -103.142 1296.51 -110.974 1296.12L-110.851 1293.63C-118.739 1293.24 -126.591 1292.72 -134.405 1292.07L-134.612 1294.56C-142.499 1293.9 -150.346 1293.12 -158.153 1292.21L-157.863 1289.73C-165.684 1288.81 -173.464 1287.77 -181.201 1286.6L-181.574 1289.07C-189.399 1287.89 -197.18 1286.58 -204.913 1285.15L-204.457 1282.69C-212.208 1281.25 -219.911 1279.68 -227.564 1277.99L-228.104 1280.43C-235.82 1278.73 -243.486 1276.9 -251.099 1274.94L-250.477 1272.52C-258.103 1270.56 -265.676 1268.47 -273.193 1266.27L-273.897 1268.67C-281.487 1266.44 -289.019 1264.08 -296.493 1261.61L-295.707 1259.24C-303.181 1256.76 -310.596 1254.16 -317.949 1251.44L-318.816 1253.79C-326.223 1251.05 -333.567 1248.19 -340.845 1245.21L-339.898 1242.9C-347.187 1239.92 -354.41 1236.82 -361.564 1233.6L-362.59 1235.88C-369.796 1232.64 -376.932 1229.28 -383.997 1225.8L-382.893 1223.56C-389.953 1220.08 -396.94 1216.49 -403.853 1212.79L-405.033 1214.99C-411.992 1211.27 -418.875 1207.42 -425.679 1203.47L-424.423 1201.31C-431.23 1197.35 -437.957 1193.29 -444.603 1189.11L-445.933 1191.23C-452.619 1187.02 -459.222 1182.71 -465.741 1178.29L-464.338 1176.22C-470.846 1171.81 -477.27 1167.29 -483.606 1162.66L-485.08 1164.68C-491.454 1160.02 -497.74 1155.26 -503.934 1150.4L-502.39 1148.43C-508.576 1143.57 -514.671 1138.61 -520.671 1133.55L-522.283 1135.46C-528.315 1130.37 -534.252 1125.18 -540.091 1119.89L-538.412 1118.04C-544.238 1112.76 -549.965 1107.38 -555.592 1101.91L-557.335 1103.7C-562.991 1098.2 -568.546 1092.6 -573.996 1086.91L-572.19 1085.18C-577.627 1079.5 -582.959 1073.73 -588.184 1067.87L-590.05 1069.53C-595.299 1063.64 -600.44 1057.66 -605.47 1051.6L-603.545 1050C-608.559 1043.95 -613.462 1037.81 -618.251 1031.59L-620.233 1033.11C-625.043 1026.86 -629.739 1020.53 -634.318 1014.11L-632.283 1012.66C-636.844 1006.26 -641.289 999.786 -645.614 993.229L-647.701 994.605C-652.042 988.024 -656.263 981.363 -660.361 974.625L-658.225 973.326C-662.305 966.616 -666.262 959.83 -670.094 952.97L-672.277 954.189C-676.121 947.308 -679.838 940.353 -683.428 933.326L-681.201 932.189C-684.771 925.201 -688.213 918.141 -691.524 911.014L-693.791 912.068C-697.111 904.923 -700.299 897.711 -703.354 890.433L-701.048 889.466C-704.085 882.23 -706.989 874.93 -709.758 867.567L-712.098 868.447C-714.87 861.077 -717.506 853.645 -720.004 846.154L-717.632 845.364C-720.111 837.928 -722.454 830.435 -724.657 822.885L-727.057 823.586C-729.261 816.031 -731.327 808.42 -733.25 800.756L-730.826 800.148C-732.735 792.542 -734.503 784.884 -736.129 777.175L-738.575 777.691C-740.197 770 -741.677 762.259 -743.012 754.471L-740.548 754.048C-741.871 746.334 -743.051 738.573 -744.086 730.768L-746.565 731.097C-747.598 723.302 -748.488 715.463 -749.23 707.584L-746.741 707.35C-747.476 699.552 -748.066 691.713 -748.509 683.837L-751.005 683.977C-751.445 676.145 -751.741 668.275 -751.889 660.371L-749.389 660.324C-749.463 656.391 -749.5 652.45 -749.5 648.5C-749.5 644.55 -749.463 640.609 -749.389 636.676L-751.889 636.629C-751.741 628.725 -751.445 620.856 -751.005 613.023L-748.509 613.163C-748.066 605.287 -747.476 597.449 -746.741 589.65L-749.23 589.416C-748.488 581.537 -747.598 573.698 -746.565 565.903L-744.086 566.232C-743.051 558.427 -741.871 550.667 -740.548 542.952L-743.012 542.529C-741.677 534.742 -740.197 527.001 -738.575 519.309L-736.129 519.825C-734.503 512.117 -732.735 504.459 -730.826 496.853L-733.251 496.244C-731.327 488.58 -729.261 480.97 -727.057 473.415L-724.657 474.115C-722.454 466.565 -720.111 459.072 -717.632 451.637L-720.004 450.846C-717.506 443.355 -714.87 435.923 -712.098 428.553L-709.758 429.433C-706.99 422.071 -704.085 414.77 -701.048 407.535L-703.354 406.567C-700.299 399.289 -697.111 392.077 -693.792 384.933L-691.524 385.986C-688.213 378.859 -684.771 371.8 -681.201 364.811L-683.428 363.674C-679.839 356.648 -676.121 349.692 -672.277 342.812L-670.095 344.031C-666.263 337.17 -662.305 330.384 -658.225 323.675L-660.361 322.376C-656.263 315.637 -652.042 308.976 -647.701 302.395L-645.614 303.771C-641.289 297.214 -636.845 290.737 -632.283 284.342L-634.318 282.89C-629.739 276.471 -625.043 270.136 -620.233 263.885L-618.252 265.41C-613.462 259.187 -608.559 253.05 -603.545 247L-605.47 245.405C-600.44 239.336 -595.3 233.356 -590.051 227.467L-588.184 229.13C-582.96 223.268 -577.627 217.497 -572.19 211.819L-573.996 210.09C-568.546 204.398 -562.991 198.8 -557.335 193.299L-555.592 195.091C-549.966 189.619 -544.238 184.242 -538.413 178.964L-540.091 177.112C-534.253 171.822 -528.316 166.63 -522.283 161.541L-520.671 163.451C-514.671 158.389 -508.576 153.427 -502.39 148.568L-503.934 146.602C-497.74 141.737 -491.454 136.976 -485.08 132.321L-483.606 134.34C-477.27 129.713 -470.847 125.192 -464.338 120.778L-465.741 118.709C-459.223 114.289 -452.619 109.976 -445.933 105.774L-444.603 107.891C-437.957 103.714 -431.23 99.647 -424.423 95.692L-425.68 93.5304C-418.875 89.5765 -411.992 85.7344 -405.034 82.0067L-403.853 84.2104C-396.941 80.5074 -389.953 76.9178 -382.893 73.444L-383.997 71.2009C-376.933 67.7248 -369.796 64.3644 -362.59 61.1222L-361.564 63.4021C-354.41 60.1833 -347.187 57.0815 -339.899 54.0993L-340.845 51.7855C-333.567 48.8075 -326.223 45.9483 -318.816 43.2104L-317.949 45.5553C-310.596 42.8375 -303.181 40.2396 -295.707 37.7643L-296.493 35.391C-289.02 32.9161 -281.487 30.5632 -273.898 28.3348L-273.193 30.7336C-265.676 28.5264 -258.103 26.4419 -250.477 24.4823L-251.099 22.061C-243.486 20.1049 -235.82 18.2729 -228.104 16.5674L-227.564 19.0085C-219.911 17.317 -212.208 15.7504 -204.457 14.311L-204.913 11.8531C-197.18 10.4169 -189.399 9.10699 -181.574 7.9257L-181.201 10.3977C-173.465 9.22984 -165.685 8.18812 -157.863 7.2748L-158.153 4.79168C-150.347 3.88007 -142.499 3.09593 -134.612 2.44151L-134.406 4.93294C-126.591 4.28453 -118.739 3.76389 -110.851 3.37324L-110.975 0.876301C-103.142 0.488392 -95.2737 0.228201 -87.3726 0.0978597L-87.3313 2.59752C-83.3957 2.5326 -79.4518 2.5 -75.5 2.5C-71.5483 2.5 -67.6045 2.53259 -63.6689 2.59752L-63.6277 0.0978556C-55.7266 0.228195 -47.8585 0.488382 -40.0256 0.876287L-40.1493 3.37323C-32.261 3.76388 -24.4088 4.28451 -16.5947 4.93292L-16.3879 2.44148C-8.50146 3.09591 -0.653687 3.88004 7.15302 4.79165L6.86304 7.27478C14.6844 8.18809 22.4644 9.22981 30.2005 10.3977L30.5737 7.92567C38.3989 9.10696 46.1796 10.4169 53.9132 11.853L53.4567 14.311C61.2075 15.7503 68.9108 17.317 76.5643 19.0085L77.1038 16.5674C84.8201 18.2729 92.4861 20.1048 100.099 22.0609L99.4769 24.4823C107.103 26.4418 114.676 28.5264 122.193 30.7335L122.897 28.3348C130.487 30.5632 138.019 32.9161 145.493 35.391L144.707 37.7642C152.181 40.2396 159.596 42.8374 166.949 45.5552L167.816 43.2103C175.223 45.9482 182.567 48.8074 189.845 51.7854L188.898 54.0992C196.187 57.0814 203.41 60.1832 210.564 63.402L211.59 61.1221C218.796 64.3643 225.932 67.7247 232.997 71.2008L231.893 73.4439C238.953 76.9177 245.94 80.5073 252.853 84.2103L254.033 82.0066C260.992 85.7343 267.875 89.5764 274.679 93.5303L273.423 95.6919C280.229 99.6469 286.957 103.714 293.603 107.891L294.933 105.774C301.619 109.976 308.222 114.289 314.741 118.709L313.338 120.778C319.846 125.192 326.27 129.713 332.606 134.34L334.08 132.321C340.454 136.976 346.74 141.737 352.934 146.602L351.39 148.568C357.576 153.426 363.671 158.388 369.671 163.451L371.283 161.54C377.315 166.63 383.252 171.822 389.091 177.111L387.412 178.964C393.238 184.242 398.965 189.618 404.592 195.091L406.335 193.298C411.991 198.8 417.546 204.398 422.996 210.09L421.19 211.819C426.627 217.497 431.959 223.268 437.184 229.13L439.051 227.467C444.299 233.356 449.44 239.336 454.47 245.405L452.545 247C457.559 253.049 462.462 259.187 467.251 265.41L469.233 263.885C474.043 270.135 478.739 276.471 483.318 282.89L481.283 284.342C485.844 290.737 490.289 297.214 494.614 303.771L496.701 302.395C501.042 308.976 505.263 315.637 509.361 322.375L507.225 323.674C511.305 330.384 515.262 337.17 519.094 344.03L521.277 342.811C525.121 349.692 528.839 356.647 532.428 363.674L530.201 364.811C533.771 371.799 537.213 378.859 540.524 385.986L542.792 384.932C546.111 392.077 549.299 399.289 552.354 406.567L550.048 407.534C553.085 414.77 555.99 422.07 558.758 429.433L561.098 428.553C563.87 435.923 566.506 443.355 569.004 450.846L566.632 451.636C569.111 459.072 571.454 466.565 573.657 474.115L576.057 473.414C578.261 480.969 580.327 488.58 582.25 496.244L579.826 496.852C581.735 504.458 583.503 512.117 585.129 519.825L587.575 519.309C589.197 527 590.677 534.741 592.012 542.529L589.548 542.952C590.871 550.666 592.051 558.427 593.086 566.232L595.565 565.903C596.598 573.698 597.488 581.537 598.23 589.416L595.741 589.65C596.476 597.448 597.066 605.287 597.509 613.163L600.005 613.023Z" stroke="#929292" stroke-width="5" stroke-dasharray="24 24"/>
</svg>
